# xmcd
#
# Track frame offsets: 
#        150
#        17907
#        36915
#        58109
#        78213
#        96916
#        119286
#        140937
#        158125
#
# Disc length: 2361 seconds
#
# Revision: 1
# Processed by: cddbd v1.5.2PL0 Copyright (c) Steve Scherf et al.
# Submitted via: ExactAudioCopy v1.3
#
DISCID=78093709
DTITLE=King King - Exile and Grace 
DYEAR=2017
DGENRE=Blues Rock
TTITLE0=(She Don't) Gimme No Lovin'
TTITLE1=Heed The Warning
TTITLE2=Broken
TTITLE3=Find Your Way Home
TTITLE4=Tear It All Up
TTITLE5=Betrayed Me
TTITLE6=Long Time Running
TTITLE7=Nobody Knows Your Name
TTITLE8=I Don't Wanna Lie
EXTD=
EXTT0=
EXTT1=
EXTT2=
EXTT3=
EXTT4=
EXTT5=
EXTT6=
EXTT7=
EXTT8=
PLAYORDER=
